<?xml version="1.0" encoding="UTF-8" standalone="no"?>
<!DOCTYPE svg PUBLIC "-//W3C//DTD SVG 1.1//EN" "http://www.w3.org/Graphics/SVG/1.1/DTD/svg11.dtd">
<!-- Created with Vectornator (http://vectornator.io/) -->
<svg height="100%" stroke-miterlimit="10" style="fill-rule:nonzero;clip-rule:evenodd;stroke-linecap:round;stroke-linejoin:round;" version="1.1" viewBox="0 0 158.348 247.227" width="100%" xml:space="preserve" xmlns="http://www.w3.org/2000/svg" xmlns:vectornator="http://vectornator.io" xmlns:xlink="http://www.w3.org/1999/xlink">
<defs/>
<path d="M0 0L158.348 0L158.348 247.227L0 247.227L0 0Z" fill="#184a9a" fill-rule="nonzero" opacity="1" stroke="none"/>
<clipPath id="ArtboardFrame">
<rect height="247.227" width="158.348" x="0" y="0"/>
</clipPath>
<g clip-path="url(#ArtboardFrame)" id="Без-названия" vectornator:layerName="Без названия">
<clipPath id="ClipPath">
<path d="M34.394 0.001005C15.399 0.001005 0 15.4 0 34.395L0 212.833C0 231.828 15.399 247.227 34.394 247.227L123.953 247.227C142.949 247.227 158.348 231.828 158.348 212.833L158.348 34.395C158.348 15.4 142.949 0.001005 123.953 0.001005L34.394 0.001005Z"/>
</clipPath>
<g clip-path="url(#ClipPath)">
<path d="M156.865 58.1081L171.295 69.6621C171.496 69.8241 171.772 69.8761 172.032 69.8021L190.598 64.5041C191.252 64.3171 191.814 64.9251 191.549 65.5331L184.016 82.7821C183.911 83.0241 183.934 83.2951 184.077 83.5071L194.321 98.6771C194.682 99.2111 194.232 99.9381 193.56 99.9061L174.475 99.0131C174.208 99.0001 173.947 99.1151 173.776 99.3201L161.54 113.994C161.109 114.511 160.27 114.352 160.119 113.725L155.857 95.9231C155.797 95.6741 155.613 95.4751 155.364 95.3891L137.557 89.2881C136.93 89.0731 136.862 88.2481 137.441 87.8921L153.891 77.7841C154.121 77.6421 154.269 77.4041 154.286 77.1461L155.516 58.7011C155.56 58.0521 156.357 57.7011 156.865 58.1081Z" fill="none" opacity="1" stroke="#ee7714" stroke-linecap="butt" stroke-linejoin="miter" stroke-width="0.429" vectornator:layerName="path"/>
<path d="M160.026 57.049L172.881 70.332C173.061 70.518 173.328 70.605 173.595 70.564L192.682 67.652C193.355 67.549 193.835 68.223 193.495 68.793L183.845 84.953C183.711 85.179 183.699 85.451 183.814 85.68L192.062 102.021C192.352 102.597 191.814 103.261 191.151 103.145L172.332 99.85C172.069 99.803 171.795 99.884 171.599 100.067L157.609 113.078C157.116 113.537 156.304 113.273 156.234 112.632L154.253 94.435C154.225 94.18 154.067 93.959 153.831 93.842L136.937 85.543C136.342 85.25 136.378 84.424 136.998 84.143L154.592 76.192C154.838 76.081 155.015 75.862 155.065 75.609L158.613 57.467C158.738 56.828 159.573 56.581 160.026 57.049Z" fill="none" opacity="1" stroke="#ee7714" stroke-linecap="butt" stroke-linejoin="miter" stroke-width="0.429" vectornator:layerName="path"/>
<path d="M-19.1151 59.9088L-3.4011 59.7318C-3.1811 59.7288-2.9711 59.6158-2.8411 59.4268L6.5129 45.9388C6.8429 45.4638 7.5399 45.5608 7.6929 46.1028L12.0339 61.5048C12.0949 61.7208 12.2559 61.8868 12.4639 61.9488L27.3739 66.4038C27.8999 66.5608 27.9949 67.2818 27.5359 67.6228L14.5049 77.3188C14.3229 77.4538 14.2129 77.6708 14.2109 77.8978L14.0719 94.1398C14.0669 94.7118 13.4289 95.0588 12.9919 94.7278L0.596899 85.3188C0.423899 85.1868 0.194899 85.1548-0.0141009 85.2328L-15.0111 90.8158C-15.5391 91.0118-16.0291 90.5068-15.8401 89.9608L-10.4691 74.4498C-10.3941 74.2328-10.4261 73.9958-10.5531 73.8178L-19.6821 61.0258C-20.0041 60.5748-19.6691 59.9148-19.1151 59.9088Z" fill="none" opacity="1" stroke="#ffffff" stroke-linecap="butt" stroke-linejoin="miter" stroke-width="0.365" vectornator:layerName="path"/>
<path d="M-17.6068 57.5094L-1.9968 59.3174C-1.7778 59.3424-1.5558 59.2554-1.4018 59.0854L9.5802 46.8854C9.9672 46.4564 10.6452 46.6404 10.7292 47.1974L13.0912 63.0244C13.1242 63.2454 13.2632 63.4304 13.4622 63.5184L27.6902 69.8214C28.1922 70.0424 28.1962 70.7694 27.6972 71.0504L13.5462 79.0234C13.3492 79.1344 13.2122 79.3364 13.1822 79.5614L10.9932 95.6554C10.9162 96.2224 10.2392 96.4864 9.8482 96.1024L-1.2598 85.2044C-1.4148 85.0514-1.6378 84.9904-1.8558 85.0424L-17.4368 88.6864C-17.9858 88.8154-18.4078 88.2524-18.1508 87.7344L-10.8658 73.0254C-10.7638 72.8194-10.7648 72.5804-10.8698 72.3874L-18.3108 58.5454C-18.5728 58.0574-18.1568 57.4454-17.6068 57.5094Z" fill="none" opacity="1" stroke="#ffffff" stroke-linecap="butt" stroke-linejoin="miter" stroke-width="0.365" vectornator:layerName="path"/>
<path d="M-13.4124-4.1454L1.0176 7.4086C1.2186 7.5706 1.4946 7.6226 1.7546 7.5486L20.3206 2.2506C20.9756 2.0636 21.5366 2.6716 21.2716 3.2796L13.7386 20.5296C13.6336 20.7706 13.6566 21.0416 13.7996 21.2536L24.0446 36.4236C24.4046 36.9576 23.9546 37.6846 23.2826 37.6526L4.1976 36.7596C3.9316 36.7476 3.6696 36.8616 3.4986 37.0676L-8.7374 51.7406C-9.1684 52.2576-10.0074 52.0986-10.1574 51.4716L-14.4204 33.6696C-14.4804 33.4206-14.6644 33.2216-14.9134 33.1356L-32.7194 27.0346C-33.3474 26.8196-33.4154 25.9956-32.8364 25.6386L-16.3864 15.5306C-16.1564 15.3886-16.0084 15.1506-15.9914 14.8926L-14.7604-3.5524C-14.7174-4.2014-13.9204-4.5524-13.4124-4.1454Z" fill="none" opacity="1" stroke="#ee7714" stroke-linecap="butt" stroke-linejoin="miter" stroke-width="0.429" vectornator:layerName="path"/>
<path d="M-10.2513-5.20439L2.6047 8.07861C2.7847 8.26461 3.0507 8.35161 3.3177 8.31061L22.4047 5.39861C23.0777 5.29561 23.5577 5.96961 23.2177 6.53961L13.5687 22.7006C13.4337 22.9266 13.4217 23.1976 13.5377 23.4266L21.7847 39.7686C22.0747 40.3436 21.5377 41.0076 20.8737 40.8916L2.0547 37.5966C1.7917 37.5496 1.5177 37.6316 1.3217 37.8136L-12.6683 50.8256C-13.1603 51.2836-13.9733 51.0196-14.0433 50.3786L-16.0243 32.1816C-16.0523 31.9266-16.2103 31.7056-16.4463 31.5886L-33.3403 23.2896C-33.9353 22.9976-33.8993 22.1706-33.2793 21.8896L-15.6853 13.9386C-15.4383 13.8276-15.2623 13.6096-15.2123 13.3556L-11.6643-4.78639C-11.5393-5.42539-10.7043-5.67239-10.2513-5.20439Z" fill="none" opacity="1" stroke="#ee7714" stroke-linecap="butt" stroke-linejoin="miter" stroke-width="0.429" vectornator:layerName="path"/>
<path d="M124.577 10.7477L141.541 11.3077C141.778 11.3147 142.01 11.2017 142.16 11.0047L152.897-3.10129C153.276-3.59829 154.023-3.46029 154.162-2.86729L158.11 13.9577C158.165 14.1927 158.331 14.3797 158.553 14.4567L174.428 19.9767C174.987 20.1717 175.056 20.9537 174.544 21.2997L160.021 31.1387C159.818 31.2757 159.689 31.5047 159.676 31.7497L158.749 49.2677C158.717 49.8847 158.012 50.2287 157.556 49.8507L144.632 39.1057C144.452 38.9557 144.206 38.9107 143.976 38.9847L127.529 44.2907C126.949 44.4777 126.445 43.9097 126.675 43.3297L133.211 26.8497C133.303 26.6197 133.28 26.3627 133.151 26.1637L123.912 11.9257C123.586 11.4237 123.98 10.7277 124.577 10.7477Z" fill="none" opacity="1" stroke="#ffffff" stroke-linecap="butt" stroke-linejoin="miter" stroke-width="0.429" vectornator:layerName="path"/>
<path d="M126.319 8.23061L143.076 10.9266C143.31 10.9646 143.554 10.8816 143.728 10.7056L156.161-1.93339C156.598-2.37839 157.322-2.14639 157.385-1.54139L159.178 15.6476C159.203 15.8886 159.344 16.0946 159.555 16.1986L174.606 23.6786C175.136 23.9416 175.106 24.7266 174.554 25.0056L158.905 32.9326C158.686 33.0426 158.529 33.2536 158.486 33.4946L155.355 50.7556C155.245 51.3636 154.502 51.6166 154.098 51.1836L142.634 38.8936C142.473 38.7216 142.236 38.6456 141.998 38.6896L125.012 41.8786C124.414 41.9906 123.986 41.3626 124.287 40.8156L132.851 25.2936C132.971 25.0766 132.981 24.8186 132.878 24.6056L125.51 9.31461C125.251 8.77661 125.729 8.13561 126.319 8.23061Z" fill="none" opacity="1" stroke="#ffffff" stroke-linecap="butt" stroke-linejoin="miter" stroke-width="0.429" vectornator:layerName="path"/>
<path d="M103.688-1.47839L104.367 9.70561C104.376 9.86161 104.465 10.0066 104.604 10.0926L114.538 16.2796C114.887 16.4976 114.843 16.9976 114.462 17.1256L103.647 20.7586C103.496 20.8096 103.384 20.9296 103.347 21.0806L100.699 31.8546C100.605 32.2336 100.096 32.3266 99.8362 32.0126L92.4742 23.0746C92.3712 22.9496 92.2132 22.8786 92.0512 22.8846L80.4812 23.3566C80.0732 23.3746 79.8032 22.9316 80.0242 22.6096L86.2882 13.4526C86.3762 13.3246 86.3902 13.1606 86.3272 13.0136L81.8252 2.53161C81.6662 2.16261 82.0082 1.79561 82.4042 1.91161L93.6382 5.18961C93.7952 5.23561 93.9622 5.20461 94.0852 5.10761L102.873-1.84239C103.182-2.08739 103.664-1.87239 103.688-1.47839Z" fill="none" opacity="1" stroke="#ee7714" stroke-linecap="butt" stroke-linejoin="miter" stroke-width="0.429" vectornator:layerName="path"/>
<path d="M105.45-0.48909L104.712 10.6909C104.701 10.8469 104.771 11.0019 104.898 11.1059L113.971 18.4959C114.291 18.7569 114.183 19.2469 113.789 19.3259L102.603 21.5649C102.447 21.5959 102.32 21.7009 102.264 21.8459L98.2769 32.1989C98.1369 32.5639 97.6189 32.5929 97.4019 32.2479L91.2259 22.4519C91.1399 22.3149 90.9919 22.2249 90.8309 22.2109L79.2929 21.2189C78.8869 21.1839 78.6749 20.7109 78.9349 20.4189L86.3039 12.1259C86.4079 12.0099 86.4429 11.8489 86.3989 11.6959L83.2549 0.72891C83.1449 0.34291 83.5309 0.02191 83.9079 0.18691L94.6389 4.85691C94.7889 4.92291 94.9589 4.91291 95.0929 4.83191L104.687-0.95309C105.025-1.15709 105.476-0.88309 105.45-0.48909Z" fill="none" opacity="1" stroke="#ee7714" stroke-linecap="butt" stroke-linejoin="miter" stroke-width="0.429" vectornator:layerName="path"/>
<path d="M134.801 57.1061L138.214 53.9341C138.262 53.8891 138.283 53.8231 138.271 53.7561L137.397 49.0001C137.366 48.8321 137.54 48.7141 137.692 48.7991L141.989 51.2351C142.05 51.2691 142.121 51.2731 142.18 51.2441L146.423 49.2251C146.572 49.1541 146.75 49.2891 146.723 49.4541L145.966 54.1311C145.955 54.1971 145.978 54.2651 146.027 54.3141L149.523 57.8231C149.646 57.9471 149.582 58.1491 149.414 58.1651L144.648 58.6211C144.582 58.6271 144.525 58.6661 144.495 58.7241L142.414 62.9121C142.34 63.0601 142.123 63.0491 142.046 62.8941L139.858 58.4981C139.827 58.4371 139.769 58.3921 139.702 58.3791L134.919 57.4591C134.751 57.4261 134.681 57.2181 134.801 57.1061Z" fill="none" opacity="1" stroke="#ffffff" stroke-linecap="butt" stroke-linejoin="miter" stroke-width="0.523" vectornator:layerName="path"/>
<path d="M134.611 56.2912L138.432 53.5642C138.486 53.5262 138.516 53.4632 138.512 53.3962L138.276 48.5912C138.267 48.4212 138.457 48.3262 138.596 48.4292L142.551 51.3502C142.607 51.3902 142.677 51.4022 142.74 51.3812L147.234 49.8942C147.392 49.8422 147.55 49.9972 147.502 50.1562L146.125 54.6882C146.106 54.7512 146.12 54.8222 146.162 54.8762L149.175 58.7622C149.282 58.8992 149.191 59.0912 149.021 59.0862L144.215 58.9662C144.148 58.9652 144.086 58.9962 144.049 59.0502L141.418 62.9402C141.325 63.0772 141.11 63.0402 141.054 62.8782L139.461 58.2722C139.438 58.2082 139.386 58.1572 139.321 58.1362L134.681 56.6532C134.518 56.6012 134.476 56.3872 134.611 56.2912Z" fill="none" opacity="1" stroke="#ffffff" stroke-linecap="butt" stroke-linejoin="miter" stroke-width="0.523" vectornator:layerName="path"/>
<path d="M110.134-34.8949L109.676-20.1559C109.669-19.9499 109.558-19.7549 109.379-19.6359L96.551-11.1109C96.098-10.8109 96.177-10.1549 96.683-10.0009L111.051-5.64188C111.253-5.58088 111.405-5.42688 111.46-5.22988L115.363 8.84112C115.5 9.33712 116.174 9.44012 116.503 9.01612L125.842-3.02888C125.972-3.19788 126.177-3.29688 126.391-3.29488L141.631-3.12388C142.168-3.11688 142.506-3.70888 142.203-4.12488L133.606-15.9289C133.486-16.0939 133.46-16.3089 133.537-16.5039L139.053-30.4699C139.248-30.9619 138.783-31.4309 138.267-31.2629L123.615-26.5129C123.41-26.4469 123.189-26.4809 123.023-26.6039L111.192-35.4059C110.775-35.7159 110.15-35.4139 110.134-34.8949Z" fill="none" opacity="1" stroke="#ffffff" stroke-linecap="butt" stroke-linejoin="miter" stroke-width="0.429" vectornator:layerName="path"/>
<path d="M107.855-33.5247L109.261-18.8457C109.28-18.6397 109.195-18.4337 109.032-18.2927L97.3817-8.2157C96.9717-7.8607 97.1317-7.2207 97.6537-7.1317L112.458-4.6217C112.665-4.5867 112.836-4.4527 112.915-4.2647L118.563 9.2023C118.762 9.6763 119.443 9.6933 119.716 9.2303L127.459-3.8967C127.567-4.0807 127.759-4.2047 127.971-4.2297L143.11-5.9827C143.644-6.0447 143.904-6.6747 143.552-7.0487L133.533-17.6727C133.393-17.8217 133.34-18.0317 133.393-18.2347L137.102-32.7857C137.232-33.2977 136.712-33.7047 136.221-33.4727L122.286-26.9117C122.091-26.8197 121.867-26.8257 121.688-26.9267L108.84-34.1657C108.388-34.4207 107.805-34.0417 107.855-33.5247Z" fill="none" opacity="1" stroke="#ffffff" stroke-linecap="butt" stroke-linejoin="miter" stroke-width="0.429" vectornator:layerName="path"/>
<path d="M59.6935-21.1077L50.1085-14.0357C49.9745-13.9377 49.7955-13.9107 49.6305-13.9647L37.8115-17.8497C37.3945-17.9857 37.0175-17.6087 37.1725-17.2117L41.5835-5.91268C41.6445-5.75468 41.6235-5.58068 41.5255-5.44768L34.5435 4.05832C34.2975 4.39232 34.5685 4.87232 35.0025 4.86932L47.3125 4.78032C47.4845 4.77932 47.6505 4.85932 47.7555 4.99632L55.2585 14.7553C55.5235 15.1003 56.0685 15.0183 56.1805 14.6183L59.3785 3.26532C59.4235 3.10632 59.5475 2.98332 59.7095 2.93432L71.3295-0.539681C71.7395-0.662681 71.8045-1.19168 71.4405-1.43568L61.1075-8.36368C60.9625-8.46068 60.8735-8.61768 60.8685-8.78468L60.5465-20.6907C60.5355-21.1107 60.0305-21.3567 59.6935-21.1077Z" fill="none" opacity="1" stroke="#ee7714" stroke-linecap="butt" stroke-linejoin="miter" stroke-width="0.429" vectornator:layerName="path"/>
<path d="M57.6852-21.87L49.0692-13.645C48.9492-13.53 48.7752-13.481 48.6042-13.515L36.3892-15.876C35.9592-15.959 35.6322-15.537 35.8372-15.162L41.6382-4.51098C41.7192-4.36198 41.7192-4.18698 41.6392-4.04198L35.9132 6.26902C35.7112 6.63202 36.0402 7.07302 36.4702 7.01502L48.6712 5.37402C48.8412 5.35102 49.0162 5.41002 49.1372 5.53202L57.8132 14.266C58.1192 14.574 58.6482 14.425 58.7102 14.014L60.4492 2.34802C60.4742 2.18502 60.5812 2.04602 60.7362 1.97802L71.8252-2.93598C72.2152-3.10898 72.2132-3.64198 71.8212-3.83798L60.6962-9.40598C60.5402-9.48398 60.4322-9.62898 60.4062-9.79398L58.5842-21.565C58.5192-21.979 57.9892-22.16 57.6852-21.87Z" fill="none" opacity="1" stroke="#ee7714" stroke-linecap="butt" stroke-linejoin="miter" stroke-width="0.429" vectornator:layerName="path"/>
<path d="M122.112 24.8869L119.097 25.0459C119.054 25.0479 119.013 25.0289 118.986 24.9939L117.026 22.5229C116.957 22.4359 116.825 22.4629 116.802 22.5689L116.158 25.5749C116.15 25.6169 116.121 25.6509 116.082 25.6659L113.277 26.7029C113.178 26.7399 113.169 26.8789 113.261 26.9389L115.879 28.6379C115.915 28.6619 115.939 28.7019 115.943 28.7449L116.168 31.8579C116.176 31.9679 116.303 32.0269 116.383 31.9579L118.644 30.0019C118.675 29.9739 118.719 29.9649 118.76 29.9779L121.704 30.8639C121.808 30.8949 121.896 30.7919 121.853 30.6899L120.633 27.7819C120.615 27.7409 120.619 27.6949 120.641 27.6589L122.235 25.0949C122.291 25.0039 122.218 24.8819 122.112 24.8869Z" fill="none" opacity="1" stroke="#ffffff" stroke-linecap="butt" stroke-linejoin="miter" stroke-width="0.429" vectornator:layerName="path"/>
<path d="M121.793 24.4455L118.821 24.9835C118.78 24.9915 118.736 24.9775 118.705 24.9465L116.449 22.7415C116.37 22.6645 116.242 22.7085 116.232 22.8165L115.974 25.8795C115.97 25.9225 115.946 25.9595 115.909 25.9795L113.258 27.3625C113.165 27.4105 113.172 27.5495 113.272 27.5975L116.083 28.9535C116.122 28.9725 116.151 29.0085 116.16 29.0515L116.776 32.1115C116.798 32.2185 116.931 32.2615 117.001 32.1825L118.998 29.9565C119.026 29.9255 119.068 29.9115 119.11 29.9185L122.143 30.4255C122.25 30.4445 122.324 30.3305 122.268 30.2345L120.69 27.5035C120.668 27.4655 120.666 27.4195 120.683 27.3815L121.94 24.6355C121.985 24.5385 121.897 24.4265 121.793 24.4455Z" fill="none" opacity="1" stroke="#ffffff" stroke-linecap="butt" stroke-linejoin="miter" stroke-width="0.429" vectornator:layerName="path"/>
<path d="M62.0544 24.7692L59.0384 24.9282C58.9964 24.9302 58.9554 24.9112 58.9274 24.8762L56.9684 22.4052C56.8994 22.3172 56.7664 22.3452 56.7444 22.4512L56.1004 25.4572C56.0924 25.4992 56.0634 25.5332 56.0234 25.5482L53.2194 26.5852C53.1204 26.6222 53.1114 26.7612 53.2034 26.8212L55.8214 28.5202C55.8574 28.5442 55.8814 28.5842 55.8844 28.6272L56.1104 31.7402C56.1184 31.8502 56.2444 31.9092 56.3254 31.8402L58.5864 29.8832C58.6174 29.8562 58.6614 29.8472 58.7024 29.8592L61.6464 30.7462C61.7504 30.7772 61.8384 30.6742 61.7954 30.5722L60.5754 27.6642C60.5574 27.6232 60.5604 27.5772 60.5834 27.5412L62.1774 24.9762C62.2324 24.8862 62.1604 24.7642 62.0544 24.7692Z" fill="none" opacity="1" stroke="#ee7714" stroke-linecap="butt" stroke-linejoin="miter" stroke-width="0.429" vectornator:layerName="path"/>
<path d="M61.7355 24.3278L58.7645 24.8658C58.7225 24.8728 58.6785 24.8598 58.6475 24.8288L56.3915 22.6238C56.3125 22.5468 56.1845 22.5898 56.1755 22.6978L55.9165 25.7618C55.9135 25.8048 55.8885 25.8418 55.8515 25.8608L53.2005 27.2448C53.1075 27.2928 53.1155 27.4318 53.2145 27.4798L56.0255 28.8348C56.0655 28.8538 56.0935 28.8908 56.1025 28.9338L56.7195 31.9938C56.7405 32.1008 56.8745 32.1428 56.9445 32.0648L58.9405 29.8388C58.9685 29.8078 59.0105 29.7928 59.0525 29.8008L62.0855 30.3078C62.1925 30.3258 62.2665 30.2128 62.2115 30.1168L60.6335 27.3858C60.6115 27.3478 60.6085 27.3018 60.6265 27.2638L61.8835 24.5178C61.9275 24.4208 61.8405 24.3088 61.7355 24.3278Z" fill="none" opacity="1" stroke="#ee7714" stroke-linecap="butt" stroke-linejoin="miter" stroke-width="0.429" vectornator:layerName="path"/>
<path d="M75.4997 6.82141L72.4847 6.98041C72.4417 6.98241 72.4007 6.96341 72.3737 6.92841L70.4147 4.45741C70.3447 4.36941 70.2127 4.39741 70.1897 4.50341L69.5467 7.50941C69.5377 7.55141 69.5087 7.58541 69.4697 7.60041L66.6647 8.63741C66.5657 8.67441 66.5567 8.81341 66.6487 8.87341L69.2667 10.5724C69.3037 10.5964 69.3267 10.6364 69.3307 10.6794L69.5567 13.7924C69.5637 13.9024 69.6907 13.9614 69.7707 13.8924L72.0317 11.9354C72.0627 11.9084 72.1067 11.8994 72.1477 11.9114L75.0917 12.7984C75.1957 12.8294 75.2837 12.7264 75.2407 12.6244L74.0207 9.71641C74.0027 9.67541 74.0067 9.62941 74.0287 9.59341L75.6227 7.02841C75.6787 6.93841 75.6057 6.81641 75.4997 6.82141Z" fill="none" opacity="1" stroke="#ffffff" stroke-linecap="butt" stroke-linejoin="miter" stroke-width="0.429" vectornator:layerName="path"/>
<path d="M75.1813 6.38L72.2103 6.918C72.1683 6.925 72.1243 6.912 72.0933 6.881L69.8373 4.676C69.7583 4.599 69.6303 4.642 69.6213 4.75L69.3623 7.814C69.3583 7.857 69.3343 7.894 69.2973 7.913L66.6463 9.297C66.5533 9.345 66.5603 9.484 66.6603 9.532L69.4713 10.887C69.5103 10.906 69.5393 10.943 69.5483 10.986L70.1653 14.046C70.1863 14.153 70.3193 14.195 70.3893 14.117L72.3863 11.891C72.4143 11.86 72.4563 11.845 72.4983 11.853L75.5313 12.36C75.6383 12.378 75.7123 12.265 75.6563 12.169L74.0783 9.438C74.0563 9.4 74.0543 9.354 74.0723 9.316L75.3283 6.57C75.3733 6.473 75.2853 6.361 75.1813 6.38Z" fill="none" opacity="1" stroke="#ffffff" stroke-linecap="butt" stroke-linejoin="miter" stroke-width="0.429" vectornator:layerName="path"/>
<path d="M37.1149 13.2853L33.2119 18.0603C33.1569 18.1273 33.0709 18.1633 32.9809 18.1573L26.5539 17.7223C26.3269 17.7063 26.1869 17.9443 26.3159 18.1243L29.9749 23.2273C30.0259 23.2993 30.0369 23.3893 30.0059 23.4683L27.7189 29.1313C27.6389 29.3313 27.8369 29.5363 28.0539 29.4793L34.2189 27.8583C34.3049 27.8363 34.3979 27.8553 34.4689 27.9103L39.4829 31.8463C39.6589 31.9843 39.9219 31.8743 39.9279 31.6593L40.0779 25.5543C40.0799 25.4683 40.1269 25.3903 40.2019 25.3453L45.5869 22.1143C45.7769 22.0003 45.7409 21.7263 45.5279 21.6503L39.4559 19.4983C39.3709 19.4683 39.3059 19.4003 39.2829 19.3173L37.5959 13.3853C37.5369 13.1763 37.2529 13.1173 37.1149 13.2853Z" fill="none" opacity="1" stroke="#ffffff" stroke-linecap="butt" stroke-linejoin="miter" stroke-width="0.429" vectornator:layerName="path"/>
<path d="M36.0099 13.1598L32.7399 18.3898C32.6949 18.4628 32.6139 18.5098 32.5239 18.5148L26.0929 18.8938C25.8669 18.9078 25.7569 19.1608 25.9069 19.3238L30.1819 23.9238C30.2409 23.9888 30.2639 24.0768 30.2419 24.1588L28.6899 30.0658C28.6349 30.2738 28.8569 30.4528 29.0649 30.3688L34.9759 27.9828C35.0589 27.9488 35.1539 27.9558 35.2299 28.0018L40.7009 31.2728C40.8939 31.3888 41.1409 31.2458 41.1189 31.0318L40.4979 24.9558C40.4889 24.8708 40.5259 24.7878 40.5939 24.7338L45.5289 20.8488C45.7019 20.7118 45.6329 20.4448 45.4109 20.3958L39.1159 19.0278C39.0289 19.0088 38.9559 18.9498 38.9219 18.8698L36.4999 13.1978C36.4149 12.9978 36.1249 12.9758 36.0099 13.1598Z" fill="none" opacity="1" stroke="#ffffff" stroke-linecap="butt" stroke-linejoin="miter" stroke-width="0.429" vectornator:layerName="path"/>
<path d="M91.5129 271.719L97.5499 254.247C97.6339 254.003 97.5909 253.726 97.4339 253.506L86.2079 237.797C85.8119 237.244 86.1969 236.511 86.8579 236.556L105.635 237.858C105.898 237.876 106.145 237.764 106.297 237.558L117.145 222.814C117.527 222.294 118.363 222.474 118.559 223.117L124.127 241.394C124.205 241.65 124.401 241.857 124.652 241.949L142.583 248.546C143.214 248.778 143.346 249.622 142.806 249.974L127.47 259.969C127.256 260.108 127.13 260.349 127.133 260.612L127.367 279.433C127.375 280.096 126.621 280.438 126.091 280.012L111.044 267.912C110.834 267.743 110.56 267.684 110.311 267.755L92.5249 272.79C91.8979 272.968 91.2999 272.335 91.5129 271.719Z" fill="none" opacity="1" stroke="#ee7714" stroke-linecap="butt" stroke-linejoin="miter" stroke-width="0.429" vectornator:layerName="path"/>
<path d="M89.4538 269.097L97.6478 252.527C97.7628 252.295 97.7538 252.014 97.6258 251.777L88.4728 234.777C88.1498 234.178 88.6238 233.499 89.2738 233.628L107.737 237.289C107.996 237.341 108.255 237.26 108.432 237.075L121.055 223.818C121.499 223.351 122.305 223.635 122.418 224.298L125.635 243.131C125.68 243.394 125.849 243.625 126.086 243.748L143.04 252.555C143.638 252.866 143.662 253.72 143.081 254.001L126.607 261.979C126.376 262.091 126.221 262.313 126.191 262.575L124.047 281.275C123.971 281.934 123.181 282.178 122.708 281.688L109.309 267.786C109.122 267.592 108.858 267.498 108.602 267.537L90.3218 270.287C89.6788 270.384 89.1648 269.68 89.4538 269.097Z" fill="none" opacity="1" stroke="#ee7714" stroke-linecap="butt" stroke-linejoin="miter" stroke-width="0.429" vectornator:layerName="path"/>
<path d="M18.194 249.946L13.024 233.78C12.952 233.554 12.768 233.374 12.531 233.299L-4.362 227.923C-4.957 227.733-5.077 226.983-4.566 226.653L9.956 217.283C10.159 217.152 10.279 216.933 10.277 216.698L10.145 199.891C10.14 199.3 10.854 198.972 11.352 199.338L25.497 209.713C25.694 209.858 25.953 209.903 26.188 209.833L43 204.822C43.592 204.646 44.153 205.194 43.95 205.75L38.17 221.531C38.089 221.752 38.129 221.999 38.276 222.191L48.798 235.901C49.169 236.383 48.803 237.05 48.179 237.028L30.462 236.406C30.214 236.397 29.98 236.505 29.835 236.693L19.527 250.177C19.164 250.652 18.376 250.516 18.194 249.946Z" fill="none" opacity="1" stroke="#ffffff" stroke-linecap="butt" stroke-linejoin="miter" stroke-width="0.429" vectornator:layerName="path"/>
<path d="M15.2384 249.152L12.1504 232.462C12.1074 232.229 11.9464 232.027 11.7224 231.923L-4.3576 224.457C-4.9236 224.194-4.9486 223.434-4.3996 223.172L11.1894 215.71C11.4064 215.606 11.5534 215.403 11.5814 215.17L13.5714 198.481C13.6424 197.893 14.3904 197.659 14.8394 198.084L27.5614 210.162C27.7384 210.331 27.9894 210.408 28.2324 210.368L45.5414 207.52C46.1514 207.42 46.6384 208.034 46.3664 208.56L38.6404 223.486C38.5324 223.695 38.5414 223.944 38.6624 224.153L47.3704 239.082C47.6774 239.607 47.2304 240.222 46.6134 240.121L29.1164 237.268C28.8714 237.228 28.6264 237.305 28.4594 237.474L16.5314 249.549C16.1114 249.975 15.3474 249.74 15.2384 249.152Z" fill="none" opacity="1" stroke="#ffffff" stroke-linecap="butt" stroke-linejoin="miter" stroke-width="0.429" vectornator:layerName="path"/>
<path d="M56.3522 229.992L52.9542 228.225C52.9072 228.201 52.8502 228.203 52.8012 228.231L49.3602 230.22C49.2392 230.29 49.1002 230.188 49.1242 230.047L49.8232 226.048C49.8332 225.992 49.8162 225.936 49.7782 225.898L47.0442 223.171C46.9472 223.075 47.0032 222.901 47.1382 222.876L50.9682 222.171C51.0212 222.161 51.0682 222.124 51.0922 222.073L52.8442 218.398C52.9052 218.269 53.0802 218.263 53.1382 218.388L54.8062 221.951C54.8302 222.001 54.8752 222.035 54.9292 222.041L58.7452 222.497C58.8792 222.513 58.9312 222.684 58.8322 222.786L56.0342 225.694C55.9952 225.734 55.9772 225.792 55.9852 225.847L56.5922 229.804C56.6142 229.943 56.4722 230.054 56.3522 229.992Z" fill="none" opacity="1" stroke="#ffffff" stroke-linecap="butt" stroke-linejoin="miter" stroke-width="0.429" vectornator:layerName="path"/>
<path d="M55.7736 230.364L52.6086 228.158C52.5646 228.127 52.5066 228.121 52.4556 228.143L48.8016 229.652C48.6726 229.705 48.5466 229.585 48.5876 229.449L49.7566 225.581C49.7736 225.527 49.7626 225.469 49.7296 225.427L47.3376 222.359C47.2536 222.25 47.3296 222.085 47.4666 222.078L51.3546 221.893C51.4086 221.891 51.4596 221.861 51.4906 221.813L53.6666 218.407C53.7436 218.287 53.9166 218.305 53.9606 218.438L55.1936 222.191C55.2106 222.243 55.2526 222.283 55.3046 222.297L59.0416 223.26C59.1726 223.294 59.2036 223.47 59.0936 223.558L55.9686 226.063C55.9246 226.098 55.8996 226.153 55.9016 226.208L56.0346 230.209C56.0396 230.35 55.8846 230.442 55.7736 230.364Z" fill="none" opacity="1" stroke="#ffffff" stroke-linecap="butt" stroke-linejoin="miter" stroke-width="0.429" vectornator:layerName="path"/>
<path d="M157.176 248.38L153.779 246.614C153.731 246.589 153.674 246.591 153.626 246.619L150.184 248.608C150.063 248.678 149.924 248.576 149.948 248.435L150.647 244.436C150.657 244.38 150.64 244.324 150.602 244.286L147.868 241.559C147.772 241.463 147.827 241.289 147.962 241.264L151.792 240.559C151.845 240.549 151.892 240.512 151.917 240.461L153.668 236.786C153.73 236.657 153.904 236.651 153.963 236.776L155.631 240.34C155.654 240.39 155.699 240.423 155.753 240.429L159.569 240.885C159.704 240.901 159.756 241.072 159.657 241.174L156.858 244.082C156.819 244.123 156.801 244.18 156.809 244.235L157.416 248.192C157.438 248.331 157.296 248.442 157.176 248.38Z" fill="none" opacity="1" stroke="#ffffff" stroke-linecap="butt" stroke-linejoin="miter" stroke-width="0.429" vectornator:layerName="path"/>
<path d="M156.598 248.752L153.433 246.546C153.389 246.516 153.332 246.51 153.281 246.531L149.626 248.04C149.497 248.093 149.371 247.974 149.412 247.837L150.581 243.969C150.598 243.915 150.588 243.857 150.554 243.815L148.162 240.747C148.078 240.638 148.155 240.473 148.291 240.466L152.179 240.281C152.234 240.279 152.285 240.249 152.315 240.201L154.491 236.795C154.568 236.676 154.741 236.693 154.785 236.826L156.018 240.579C156.036 240.632 156.077 240.671 156.129 240.685L159.866 241.648C159.997 241.682 160.029 241.858 159.918 241.946L156.793 244.451C156.749 244.486 156.724 244.541 156.726 244.596L156.859 248.597C156.864 248.738 156.709 248.83 156.598 248.752Z" fill="none" opacity="1" stroke="#ffffff" stroke-linecap="butt" stroke-linejoin="miter" stroke-width="0.429" vectornator:layerName="path"/>
<path d="M-3.1478 199.411L-4.5388 204.596C-4.5588 204.668-4.6138 204.728-4.6878 204.755L-9.9438 206.706C-10.1288 206.775-10.1558 207.014-9.9898 207.111L-5.2618 209.853C-5.1948 209.891-5.1538 209.959-5.1508 210.033L-4.9408 215.345C-4.9338 215.532-4.7038 215.624-4.5518 215.502L-0.2378 212.012C-0.1778 211.963-0.0968 211.945-0.0218 211.964L5.3642 213.295C5.5542 213.342 5.7232 213.161 5.6502 212.988L3.5882 208.089C3.5602 208.02 3.5682 207.942 3.6122 207.879L6.7312 203.39C6.8412 203.232 6.7152 203.027 6.5182 203.043L0.9302 203.505C0.8522 203.511 0.7762 203.481 0.7282 203.423L-2.7308 199.318C-2.8518 199.173-3.0988 199.228-3.1478 199.411Z" fill="none" opacity="1" stroke="#ee7714" stroke-linecap="butt" stroke-linejoin="miter" stroke-width="0.429" vectornator:layerName="path"/>
<path d="M-4.0697 199.706L-4.7957 205.025C-4.8057 205.099-4.8527 205.165-4.9227 205.202L-9.8907 207.801C-10.0657 207.893-10.0627 208.133-9.8847 208.208L-4.8487 210.331C-4.7777 210.361-4.7287 210.423-4.7157 210.496L-3.8377 215.739C-3.8067 215.923-3.5667 215.986-3.4317 215.845L0.4073 211.839C0.4603 211.783 0.5383 211.755 0.6163 211.764L6.1273 212.405C6.3213 212.427 6.4663 212.226 6.3723 212.064L3.7083 207.464C3.6703 207.399 3.6693 207.321 3.7043 207.253L6.2323 202.406C6.3213 202.235 6.1713 202.048 5.9773 202.089L0.4923 203.252C0.4163 203.269 0.3373 203.248 0.2823 203.197L-3.6677 199.561C-3.8067 199.433-4.0447 199.519-4.0697 199.706Z" fill="none" opacity="1" stroke="#ee7714" stroke-linecap="butt" stroke-linejoin="miter" stroke-width="0.429" vectornator:layerName="path"/>
<path d="M142.019 219.294L140.628 224.479C140.608 224.551 140.553 224.611 140.479 224.638L135.223 226.59C135.038 226.658 135.011 226.898 135.178 226.994L139.906 229.736C139.972 229.775 140.013 229.842 140.016 229.917L140.226 235.228C140.233 235.415 140.463 235.508 140.615 235.385L144.929 231.895C144.989 231.847 145.07 231.829 145.145 231.847L150.532 233.178C150.721 233.225 150.891 233.044 150.818 232.871L148.755 227.972C148.727 227.903 148.735 227.825 148.779 227.762L151.898 223.273C152.008 223.115 151.882 222.91 151.686 222.926L146.098 223.388C146.019 223.395 145.944 223.364 145.895 223.307L142.437 219.201C142.315 219.057 142.068 219.111 142.019 219.294Z" fill="none" opacity="1" stroke="#ee7714" stroke-linecap="butt" stroke-linejoin="miter" stroke-width="0.429" vectornator:layerName="path"/>
<path d="M141.097 219.589L140.371 224.908C140.361 224.983 140.314 225.048 140.244 225.085L135.276 227.684C135.101 227.776 135.105 228.016 135.282 228.091L140.319 230.215C140.389 230.245 140.438 230.306 140.451 230.38L141.329 235.622C141.36 235.807 141.6 235.87 141.736 235.729L145.574 231.722C145.628 231.666 145.706 231.638 145.783 231.647L151.294 232.288C151.488 232.311 151.633 232.109 151.539 231.947L148.875 227.347C148.838 227.283 148.836 227.204 148.872 227.136L151.399 222.29C151.488 222.119 151.338 221.931 151.144 221.972L145.659 223.136C145.583 223.152 145.504 223.131 145.449 223.08L141.5 219.444C141.361 219.316 141.123 219.402 141.097 219.589Z" fill="none" opacity="1" stroke="#ee7714" stroke-linecap="butt" stroke-linejoin="miter" stroke-width="0.429" vectornator:layerName="path"/>
<path d="M62.1891 223.264L66.9481 229.548C67.0141 229.636 67.0331 229.754 66.9991 229.864L64.5261 237.718C64.4391 237.994 64.6911 238.241 64.9541 238.135L72.3941 235.123C72.4981 235.081 72.6131 235.094 72.7021 235.157L79.0511 239.699C79.2741 239.859 79.5891 239.676 79.5841 239.389L79.4231 231.243C79.4211 231.129 79.4731 231.019 79.5631 230.948L85.9591 225.902C86.1841 225.724 86.1261 225.364 85.8601 225.293L78.3211 223.27C78.2151 223.242 78.1321 223.161 78.0991 223.054L75.7041 215.393C75.6191 215.123 75.2681 215.084 75.1101 215.327L70.6111 222.223C70.5481 222.32 70.4441 222.38 70.3341 222.384L62.4571 222.696C62.1801 222.707 62.0211 223.042 62.1891 223.264Z" fill="none" opacity="1" stroke="#ee7714" stroke-linecap="butt" stroke-linejoin="miter" stroke-width="0.429" vectornator:layerName="path"/>
<path d="M61.7009 224.599L67.2149 230.233C67.2919 230.311 67.3259 230.426 67.3059 230.539L65.8439 238.642C65.7929 238.928 66.0749 239.141 66.3209 239.002L73.3219 235.075C73.4199 235.02 73.5349 235.018 73.6319 235.07L80.5029 238.775C80.7449 238.905 81.0339 238.683 80.9919 238.4L79.8049 230.339C79.7879 230.226 79.8259 230.11 79.9059 230.029L85.6139 224.216C85.8149 224.011 85.7119 223.661 85.4389 223.624L77.7049 222.569C77.5969 222.555 77.5039 222.485 77.4569 222.383L74.1139 215.085C73.9959 214.828 73.6429 214.834 73.5169 215.095L69.9239 222.504C69.8739 222.607 69.7789 222.68 69.6699 222.698L61.8959 224.002C61.6219 224.048 61.5069 224.401 61.7009 224.599Z" fill="none" opacity="1" stroke="#ee7714" stroke-linecap="butt" stroke-linejoin="miter" stroke-width="0.429" vectornator:layerName="path"/>
<path d="M118.522 215.948L124.902 215.915C124.991 215.914 125.077 215.959 125.131 216.035L129.019 221.448C129.156 221.638 129.438 221.594 129.496 221.373L131.156 215.092C131.179 215.004 131.243 214.936 131.327 214.909L137.35 213.001C137.562 212.933 137.596 212.64 137.407 212.505L132.053 208.656C131.978 208.602 131.932 208.515 131.93 208.423L131.764 201.831C131.758 201.599 131.497 201.462 131.322 201.599L126.354 205.502C126.284 205.556 126.191 205.571 126.106 205.541L119.981 203.375C119.766 203.299 119.57 203.507 119.65 203.727L121.934 209.988C121.966 210.075 121.955 210.172 121.904 210.245L118.284 215.499C118.157 215.684 118.297 215.949 118.522 215.948Z" fill="none" opacity="1" stroke="#ffffff" stroke-linecap="butt" stroke-linejoin="miter" stroke-width="0.32" vectornator:layerName="path"/>
<path d="M119.151 216.912L125.476 216.074C125.564 216.062 125.655 216.096 125.718 216.164L130.258 221.043C130.418 221.215 130.692 221.135 130.722 220.908L131.575 214.468C131.587 214.378 131.642 214.302 131.722 214.265L137.456 211.612C137.658 211.518 137.655 211.224 137.45 211.113L131.653 207.971C131.572 207.927 131.515 207.846 131.501 207.755L130.505 201.236C130.47 201.007 130.194 200.904 130.038 201.062L125.601 205.561C125.539 205.624 125.449 205.65 125.36 205.631L119.011 204.255C118.788 204.207 118.62 204.438 118.728 204.647L121.783 210.569C121.826 210.652 121.827 210.748 121.786 210.828L118.858 216.496C118.755 216.696 118.928 216.942 119.151 216.912Z" fill="none" opacity="1" stroke="#ffffff" stroke-linecap="butt" stroke-linejoin="miter" stroke-width="0.32" vectornator:layerName="path"/>
<path d="M97.4635 230.085L101.631 227.079C101.69 227.037 101.767 227.026 101.838 227.05L106.919 228.781C107.097 228.842 107.262 228.681 107.197 228.509L105.347 223.615C105.321 223.546 105.331 223.471 105.374 223.415L108.43 219.346C108.538 219.203 108.423 218.995 108.236 218.994L102.925 218.975C102.851 218.975 102.78 218.939 102.735 218.88L99.5435 214.635C99.4315 214.485 99.1955 214.518 99.1455 214.69L97.7125 219.572C97.6925 219.641 97.6385 219.693 97.5685 219.714L92.5395 221.158C92.3625 221.209 92.3315 221.437 92.4875 221.544L96.9135 224.581C96.9755 224.623 97.0125 224.691 97.0135 224.763L97.0975 229.901C97.1005 230.082 97.3165 230.19 97.4635 230.085Z" fill="none" opacity="1" stroke="#ffffff" stroke-linecap="butt" stroke-linejoin="miter" stroke-width="0.258" vectornator:layerName="path"/>
<path d="M98.3263 230.423L102.081 226.915C102.133 226.866 102.209 226.846 102.282 226.861L107.54 227.937C107.725 227.974 107.868 227.794 107.782 227.631L105.329 223.009C105.295 222.945 105.296 222.869 105.331 222.808L107.849 218.386C107.938 218.231 107.798 218.039 107.612 218.062L102.341 218.713C102.267 218.722 102.193 218.696 102.141 218.643L98.4393 214.834C98.3093 214.7 98.0793 214.762 98.0513 214.939L97.2463 219.964C97.2353 220.033 97.1883 220.093 97.1213 220.122L92.3153 222.19C92.1453 222.262 92.1443 222.492 92.3123 222.579L97.0853 225.033C97.1523 225.067 97.1983 225.13 97.2083 225.201L97.9403 230.287C97.9653 230.466 98.1943 230.547 98.3263 230.423Z" fill="none" opacity="1" stroke="#ffffff" stroke-linecap="butt" stroke-linejoin="miter" stroke-width="0.258" vectornator:layerName="path"/>
<path d="M149.884 206.789L156.975 211.564C157.075 211.631 157.136 211.746 157.139 211.871L157.362 220.798C157.37 221.112 157.716 221.276 157.947 221.075L164.523 215.37C164.614 215.29 164.738 215.263 164.851 215.297L172.961 217.726C173.247 217.811 173.505 217.513 173.399 217.22L170.371 208.919C170.329 208.803 170.343 208.671 170.41 208.567L175.199 201.142C175.368 200.88 175.182 200.531 174.885 200.552L166.438 201.126C166.32 201.134 166.206 201.081 166.134 200.982L160.984 193.964C160.803 193.716 160.429 193.8 160.352 194.104L158.159 202.761C158.129 202.882 158.044 202.98 157.932 203.024L149.96 206.112C149.679 206.221 149.634 206.621 149.884 206.789Z" fill="none" opacity="1" stroke="#ffffff" stroke-linecap="butt" stroke-linejoin="miter" stroke-width="0.429" vectornator:layerName="path"/>
<path d="M149.853 208.331L157.491 212.173C157.597 212.227 157.672 212.333 157.691 212.456L159.04 221.284C159.087 221.595 159.451 221.714 159.655 221.485L165.458 214.996C165.539 214.905 165.657 214.862 165.774 214.882L174.126 216.268C174.42 216.316 174.639 215.987 174.496 215.711L170.445 207.858C170.388 207.748 170.386 207.616 170.439 207.504L174.253 199.533C174.388 199.252 174.159 198.93 173.866 198.988L165.56 200.624C165.444 200.647 165.324 200.608 165.24 200.519L159.246 194.207C159.034 193.985 158.674 194.115 158.636 194.427L157.554 203.291C157.539 203.415 157.467 203.523 157.361 203.58L149.843 207.65C149.578 207.793 149.584 208.196 149.853 208.331Z" fill="none" opacity="1" stroke="#ffffff" stroke-linecap="butt" stroke-linejoin="miter" stroke-width="0.429" vectornator:layerName="path"/>
<path d="M41.6608 254.951L51.5408 261.604C51.6788 261.697 51.7638 261.857 51.7678 262.031L52.0788 274.468C52.0898 274.906 52.5718 275.134 52.8948 274.854L62.0558 266.906C62.1838 266.795 62.3548 266.757 62.5128 266.804L73.8118 270.188C74.2098 270.307 74.5698 269.891 74.4208 269.484L70.2028 257.918C70.1438 257.756 70.1648 257.573 70.2578 257.429L76.9308 247.083C77.1658 246.719 76.9068 246.233 76.4918 246.261L64.7238 247.061C64.5588 247.073 64.4008 246.997 64.3008 246.861L57.1258 237.083C56.8728 236.738 56.3518 236.854 56.2448 237.279L53.1898 249.339C53.1468 249.508 53.0288 249.645 52.8738 249.705L41.7668 254.007C41.3748 254.159 41.3128 254.717 41.6608 254.951Z" fill="none" opacity="1" stroke="#ffffff" stroke-linecap="butt" stroke-linejoin="miter" stroke-width="0.429" vectornator:layerName="path"/>
<path d="M41.6174 257.098L52.2584 262.451C52.4074 262.526 52.5114 262.673 52.5374 262.845L54.4154 275.144C54.4824 275.577 54.9894 275.743 55.2734 275.424L63.3574 266.383C63.4714 266.257 63.6354 266.197 63.7984 266.224L75.4344 268.155C75.8444 268.223 76.1494 267.765 75.9504 267.379L70.3054 256.439C70.2264 256.286 70.2234 256.101 70.2984 255.946L75.6114 244.841C75.7984 244.45 75.4804 244.001 75.0724 244.081L63.5004 246.361C63.3384 246.392 63.1714 246.338 63.0544 246.215L54.7024 237.421C54.4084 237.111 53.9074 237.292 53.8534 237.727L52.3464 250.076C52.3254 250.249 52.2244 250.399 52.0784 250.479L41.6034 256.149C41.2344 256.348 41.2424 256.91 41.6174 257.098Z" fill="none" opacity="1" stroke="#ffffff" stroke-linecap="butt" stroke-linejoin="miter" stroke-width="0.429" vectornator:layerName="path"/>
<path d="M31.3796 244.473L32.5416 247.26C32.5576 247.299 32.5536 247.345 32.5306 247.382L30.8606 250.057C30.8016 250.152 30.8716 250.267 30.9796 250.253L34.0266 249.849C34.0696 249.844 34.1106 249.86 34.1376 249.892L36.0566 252.185C36.1246 252.266 36.2586 252.228 36.2846 252.121L37.0056 249.085C37.0156 249.042 37.0456 249.006 37.0856 248.989L39.9416 247.73C40.0426 247.686 40.0556 247.547 39.9636 247.495L37.3616 246.022C37.3246 246.002 37.3016 245.964 37.2996 245.921L37.1466 242.85C37.1406 242.742 37.0146 242.694 36.9326 242.768L34.6026 244.894C34.5696 244.924 34.5256 244.937 34.4846 244.928L31.5336 244.288C31.4296 244.265 31.3386 244.375 31.3796 244.473Z" fill="none" opacity="1" stroke="#ee7714" stroke-linecap="butt" stroke-linejoin="miter" stroke-width="0.429" vectornator:layerName="path"/>
<path d="M31.0705 244.922L32.5755 247.54C32.5965 247.576 32.5975 247.622 32.5795 247.662L31.2605 250.527C31.2145 250.628 31.2985 250.734 31.4035 250.706L34.3755 249.921C34.4175 249.91 34.4605 249.921 34.4905 249.949L36.6845 251.982C36.7615 252.053 36.8895 251.999 36.9015 251.889L37.2345 248.786C37.2385 248.743 37.2635 248.703 37.3005 248.681L39.9755 247.072C40.0695 247.016 40.0655 246.876 39.9675 246.836L37.2005 245.703C37.1615 245.688 37.1335 245.653 37.1265 245.61L36.5865 242.584C36.5675 242.477 36.4355 242.445 36.3635 242.53L34.3205 244.933C34.2925 244.967 34.2505 244.984 34.2085 244.981L31.1995 244.719C31.0935 244.71 31.0175 244.83 31.0705 244.922Z" fill="none" opacity="1" stroke="#ee7714" stroke-linecap="butt" stroke-linejoin="miter" stroke-width="0.429" vectornator:layerName="path"/>
<path d="M28.7321 194.999L28.3691 197.429C28.3641 197.462 28.3411 197.493 28.3101 197.509L26.0211 198.669C25.9401 198.709 25.9401 198.82 26.0221 198.855L28.3131 199.856C28.3451 199.871 28.3681 199.899 28.3731 199.933L28.7441 202.336C28.7571 202.421 28.8661 202.452 28.9291 202.388L30.7091 200.577C30.7341 200.552 30.7701 200.54 30.8051 200.544L33.3231 200.87C33.4121 200.881 33.4791 200.79 33.4371 200.715L32.2451 198.595C32.2291 198.565 32.2291 198.529 32.2451 198.498L33.4301 196.295C33.4721 196.218 33.4041 196.131 33.3151 196.149L30.7991 196.649C30.7641 196.656 30.7281 196.646 30.7031 196.622L28.9171 194.935C28.8551 194.876 28.7451 194.914 28.7321 194.999Z" fill="none" opacity="1" stroke="#ee7714" stroke-linecap="butt" stroke-linejoin="miter" stroke-width="0.429" vectornator:layerName="path"/>
<path d="M28.3283 195.181L28.2743 197.637C28.2743 197.671 28.2553 197.704 28.2263 197.724L26.1023 199.164C26.0273 199.214 26.0413 199.324 26.1263 199.348L28.5263 200.053C28.5593 200.062 28.5853 200.088 28.5953 200.12L29.2663 202.458C29.2893 202.541 29.4023 202.557 29.4563 202.486L30.9943 200.465C31.0153 200.437 31.0493 200.42 31.0843 200.42L33.6233 200.426C33.7133 200.426 33.7683 200.327 33.7173 200.258L32.2673 198.305C32.2473 198.277 32.2423 198.242 32.2553 198.209L33.1523 195.874C33.1843 195.792 33.1063 195.715 33.0203 195.743L30.5873 196.557C30.5533 196.568 30.5163 196.563 30.4883 196.543L28.5043 195.095C28.4343 195.043 28.3303 195.095 28.3283 195.181Z" fill="none" opacity="1" stroke="#ee7714" stroke-linecap="butt" stroke-linejoin="miter" stroke-width="0.429" vectornator:layerName="path"/>
</g>
</g>
</svg>
